<svg xmlns="http://www.w3.org/2000/svg" viewBox="0 0 512 512" width="512" height="512">
  <defs>
    <linearGradient id="carGrad" x1="0%" y1="0%" x2="100%" y2="100%">
      <stop offset="0%" style="stop-color:#0cebeb;stop-opacity:1" />
      <stop offset="100%" style="stop-color:#20e3b2;stop-opacity:1" />
    </linearGradient>
  </defs>
  <rect width="512" height="512" rx="80" fill="url(#carGrad)"/>
  <path d="M 160 240 L 180 200 L 240 180 L 360 180 L 420 200 L 440 240 L 450 280 L 450 320 Q 450 340 430 340 L 420 340 Q 420 370 390 370 Q 360 370 360 340 L 240 340 Q 240 370 210 370 Q 180 370 180 340 L 170 340 Q 150 340 150 320 L 150 280 Z" fill="white" opacity="0.9"/>
  <ellipse cx="210" cy="340" rx="25" ry="25" fill="#1a1a1a" opacity="0.7"/>
  <ellipse cx="390" cy="340" rx="25" ry="25" fill="#1a1a1a" opacity="0.7"/>
  <ellipse cx="210" cy="340" rx="12" ry="12" fill="#666" opacity="0.5"/>
  <ellipse cx="390" cy="340" rx="12" ry="12" fill="#666" opacity="0.5"/>
  <path d="M 200 240 L 220 210 L 270 200 L 340 200 L 390 210 L 410 240 Z" fill="#4facfe" opacity="0.5"/>
  <rect x="195" y="250" width="80" height="60" rx="4" fill="#60a5fa" opacity="0.4"/>
  <rect x="295" y="250" width="120" height="60" rx="4" fill="#60a5fa" opacity="0.4"/>
  <circle cx="300" cy="130" r="40" fill="white" opacity="0.3"/>
  <circle cx="340" cy="110" r="35" fill="white" opacity="0.3"/>
  <circle cx="370" cy="130" r="30" fill="white" opacity="0.3"/>
  <circle cx="250" cy="120" r="45" fill="white" opacity="0.3"/>
  <path d="M 200 160 Q 230 150 260 160" stroke="white" stroke-width="3" fill="none" opacity="0.4"/>
  <path d="M 280 155 Q 310 145 340 155" stroke="white" stroke-width="3" fill="none" opacity="0.4"/>
  <path d="M 360 145 Q 380 140 400 150" stroke="white" stroke-width="3" fill="none" opacity="0.4"/>
</svg>
