<svg xmlns="http://www.w3.org/2000/svg" viewBox="0 0 512 512" width="512" height="512">
  <defs>
    <linearGradient id="statsGrad" x1="0%" y1="0%" x2="100%" y2="100%">
      <stop offset="0%" style="stop-color:#30cfd0;stop-opacity:1" />
      <stop offset="100%" style="stop-color:#330867;stop-opacity:1" />
    </linearGradient>
  </defs>
  <rect width="512" height="512" rx="80" fill="url(#statsGrad)"/>
  <rect x="80" y="120" width="352" height="272" rx="12" fill="white" opacity="0.15"/>
  <line x1="100" y1="370" x2="412" y2="370" stroke="white" stroke-width="4" opacity="0.6"/>
  <line x1="100" y1="140" x2="100" y2="370" stroke="white" stroke-width="4" opacity="0.6"/>
  <rect x="140" y="280" width="50" height="90" rx="4" fill="#4ade80" opacity="0.9"/>
  <rect x="210" y="220" width="50" height="150" rx="4" fill="#60a5fa" opacity="0.9"/>
  <rect x="280" y="260" width="50" height="110" rx="4" fill="#a78bfa" opacity="0.9"/>
  <rect x="350" y="180" width="50" height="190" rx="4" fill="#f472b6" opacity="0.9"/>
  <polyline points="165,285 235,225 305,265 375,185" fill="none" stroke="white" stroke-width="6" opacity="0.7" stroke-linecap="round" stroke-linejoin="round"/>
  <circle cx="165" cy="285" r="8" fill="white" opacity="0.9"/>
  <circle cx="235" cy="225" r="8" fill="white" opacity="0.9"/>
  <circle cx="305" cy="265" r="8" fill="white" opacity="0.9"/>
  <circle cx="375" cy="185" r="8" fill="white" opacity="0.9"/>
</svg>
