<svg xmlns="http://www.w3.org/2000/svg" viewBox="0 0 512 512" width="512" height="512">
  <defs>
    <linearGradient id="devpanelGrad" x1="0%" y1="0%" x2="100%" y2="100%">
      <stop offset="0%" style="stop-color:#f093fb;stop-opacity:1" />
      <stop offset="100%" style="stop-color:#f5576c;stop-opacity:1" />
    </linearGradient>
  </defs>
  <rect width="512" height="512" rx="80" fill="url(#devpanelGrad)"/>
  <rect x="60" y="100" width="392" height="312" rx="12" fill="white" opacity="0.15"/>
  <rect x="60" y="100" width="392" height="50" rx="12" fill="white" opacity="0.25"/>
  <circle cx="90" cy="125" r="10" fill="white" opacity="0.7"/>
  <circle cx="120" cy="125" r="10" fill="white" opacity="0.7"/>
  <circle cx="150" cy="125" r="10" fill="white" opacity="0.7"/>
  <rect x="90" y="180" width="140" height="100" rx="6" fill="white" opacity="0.3"/>
  <rect x="100" y="200" width="40" height="4" rx="2" fill="white" opacity="0.6"/>
  <rect x="100" y="210" width="60" height="4" rx="2" fill="white" opacity="0.6"/>
  <rect x="100" y="220" width="50" height="4" rx="2" fill="white" opacity="0.6"/>
  <path d="M 105 240 L 120 260 L 105 280 M 135 240 L 150 250 L 135 260" stroke="white" stroke-width="4" fill="none" opacity="0.6"/>
  <rect x="250" y="180" width="140" height="100" rx="6" fill="white" opacity="0.3"/>
  <path d="M 270 200 L 270 260 M 270 200 L 300 200 M 270 230 L 290 230 M 270 260 L 310 260" stroke="white" stroke-width="4" fill="none" opacity="0.6"/>
  <circle cx="350" cy="230" r="20" stroke="white" stroke-width="4" fill="none" opacity="0.6"/>
  <rect x="90" y="300" width="300" height="80" rx="6" fill="white" opacity="0.3"/>
  <rect x="110" y="320" width="100" height="8" rx="4" fill="#4ade80" opacity="0.8"/>
  <rect x="110" y="340" width="160" height="8" rx="4" fill="#60a5fa" opacity="0.8"/>
  <rect x="110" y="360" width="80" height="8" rx="4" fill="#f87171" opacity="0.8"/>
</svg>
