<svg xmlns="http://www.w3.org/2000/svg" viewBox="0 0 512 512" width="512" height="512">
  <defs>
    <linearGradient id="discordGrad" x1="0%" y1="0%" x2="100%" y2="100%">
      <stop offset="0%" style="stop-color:#5865F2;stop-opacity:1" />
      <stop offset="100%" style="stop-color:#7289DA;stop-opacity:1" />
    </linearGradient>
  </defs>
  <rect width="512" height="512" rx="80" fill="url(#discordGrad)"/>
  <path d="M368 168c-24-11-50-19-77-24-3 6-7 14-9 20-29-4-57-4-85 0-3-6-6-14-10-20-27 5-53 13-77 24-45 67-57 132-51 196 32 24 63 38 94 47 8-10 14-21 20-33-11-4-22-9-32-15 3-2 5-4 8-6 61 28 128 28 189 0 2 2 5 4 7 6-10 6-21 11-32 15 5 12 12 23 20 33 31-9 62-23 94-47 7-74-12-138-51-196zm-177 157c-17 0-31-16-31-35s13-35 31-35c17 0 31 16 31 35s-14 35-31 35zm114 0c-17 0-31-16-31-35s13-35 31-35c17 0 31 16 31 35s-13 35-31 35z" fill="white"/>
</svg>
