<svg xmlns="http://www.w3.org/2000/svg" viewBox="0 0 512 512" width="512" height="512">
  <defs>
    <linearGradient id="messageGrad" x1="0%" y1="0%" x2="100%" y2="100%">
      <stop offset="0%" style="stop-color:#4facfe;stop-opacity:1" />
      <stop offset="100%" style="stop-color:#00f2fe;stop-opacity:1" />
    </linearGradient>
  </defs>
  <rect width="512" height="512" rx="80" fill="url(#messageGrad)"/>
  <path d="M 140 150 Q 100 150 100 190 L 100 280 Q 100 320 140 320 L 180 320 L 180 360 L 220 320 L 320 320 Q 360 320 360 280 L 360 190 Q 360 150 320 150 Z" fill="white" opacity="0.9"/>
  <rect x="130" y="200" width="120" height="12" rx="6" fill="#4facfe" opacity="0.6"/>
  <rect x="130" y="230" width="180" height="12" rx="6" fill="#4facfe" opacity="0.6"/>
  <rect x="130" y="260" width="150" height="12" rx="6" fill="#4facfe" opacity="0.6"/>
  <path d="M 230 200 Q 190 200 190 240 L 190 310 Q 190 350 230 350 L 270 350 L 270 390 L 310 350 L 410 350 Q 450 350 450 310 L 450 240 Q 450 200 410 200 Z" fill="white" opacity="0.8"/>
  <rect x="220" y="250" width="140" height="12" rx="6" fill="#00a8ff" opacity="0.6"/>
  <rect x="220" y="280" width="100" height="12" rx="6" fill="#00a8ff" opacity="0.6"/>
  <rect x="220" y="310" width="160" height="12" rx="6" fill="#00a8ff" opacity="0.6"/>
</svg>
