<svg xmlns="http://www.w3.org/2000/svg" viewBox="0 0 512 512" width="512" height="512">
  <defs>
    <linearGradient id="mcGrad" x1="0%" y1="0%" x2="100%" y2="100%">
      <stop offset="0%" style="stop-color:#7cb342;stop-opacity:1" />
      <stop offset="100%" style="stop-color:#558b2f;stop-opacity:1" />
    </linearGradient>
  </defs>
  <rect width="512" height="512" rx="80" fill="url(#mcGrad)"/>
  <g transform="translate(256, 256)">
    <path d="M -120 -40 L 0 -120 L 120 -40 L 120 80 L 0 160 L -120 80 Z" fill="#8bc34a" opacity="0.9"/>
    <path d="M -120 -40 L 0 -120 L 0 0 L -120 80 Z" fill="#689f38" opacity="0.9"/>
    <path d="M 0 -120 L 120 -40 L 120 80 L 0 0 Z" fill="#7cb342" opacity="0.9"/>
    <rect x="-110" y="-30" width="50" height="50" fill="#33691e" opacity="0.4"/>
    <rect x="-50" y="-10" width="50" height="50" fill="#33691e" opacity="0.4"/>
    <rect x="10" y="-50" width="50" height="50" fill="#33691e" opacity="0.4"/>
    <rect x="70" y="-30" width="40" height="40" fill="#33691e" opacity="0.4"/>
    <rect x="-110" y="30" width="40" height="40" fill="#5d4037" opacity="0.6"/>
    <rect x="-60" y="50" width="50" height="50" fill="#5d4037" opacity="0.6"/>
    <rect x="0" y="30" width="45" height="45" fill="#5d4037" opacity="0.6"/>
    <rect x="55" y="20" width="50" height="50" fill="#5d4037" opacity="0.6"/>
    <path d="M -40 -80 L -20 -90 L 0 -80 L 0 -60 L -20 -50 L -40 -60 Z" fill="#4caf50"/>
    <path d="M 20 -70 L 40 -80 L 60 -70 L 60 -50 L 40 -40 L 20 -50 Z" fill="#4caf50"/>
    <path d="M 80 -50 L 100 -60 L 110 -50 L 110 -30 L 100 -20 L 80 -30 Z" fill="#4caf50"/>
  </g>
</svg>
