<svg xmlns="http://www.w3.org/2000/svg" viewBox="0 0 512 512" width="512" height="512">
  <defs>
    <linearGradient id="linkGrad" x1="0%" y1="0%" x2="100%" y2="100%">
      <stop offset="0%" style="stop-color:#fa709a;stop-opacity:1" />
      <stop offset="100%" style="stop-color:#fee140;stop-opacity:1" />
    </linearGradient>
  </defs>
  <rect width="512" height="512" rx="80" fill="url(#linkGrad)"/>
  <g transform="translate(256, 256)">
    <path d="M -80 -80 L -40 -80 Q -20 -80 -20 -60 L -20 60 Q -20 80 -40 80 L -80 80 Q -120 80 -120 40 L -120 -40 Q -120 -80 -80 -80 Z" fill="white" stroke="white" stroke-width="20" stroke-linecap="round" stroke-linejoin="round"/>
    <path d="M 80 -80 L 40 -80 Q 20 -80 20 -60 L 20 60 Q 20 80 40 80 L 80 80 Q 120 80 120 40 L 120 -40 Q 120 -80 80 -80 Z" fill="white" stroke="white" stroke-width="20" stroke-linecap="round" stroke-linejoin="round"/>
    <line x1="-40" y1="0" x2="40" y2="0" stroke="white" stroke-width="25" stroke-linecap="round" opacity="0.8"/>
    <path d="M -50 -20 L -30 0 L -50 20" stroke="#fa709a" stroke-width="15" fill="none" stroke-linecap="round" stroke-linejoin="round" opacity="0.5"/>
    <path d="M 50 -20 L 30 0 L 50 20" stroke="#fa709a" stroke-width="15" fill="none" stroke-linecap="round" stroke-linejoin="round" opacity="0.5"/>
  </g>
</svg>
